<svg width="195" height="23" viewBox="0 0 195 23" fill="none" xmlns="http://www.w3.org/2000/svg">
<path d="M3.04199 22.0545C1.94999 22.0545 1.16999 21.84 0.70199 21.411C0.23399 20.982 -1.01728e-05 20.3677 -1.01728e-05 19.5682C-1.01728e-05 19.1782 0.0292398 18.5152 0.0877398 17.5792C0.14624 16.6237 0.22424 15.5415 0.32174 14.3325C0.41924 13.1235 0.51674 11.8462 0.61424 10.5007C0.71174 9.15525 0.80924 7.88775 0.90674 6.69825C1.00424 5.50875 1.08224 4.4655 1.14074 3.5685C1.19924 2.6715 1.22849 2.05725 1.22849 1.72575C1.22849 1.43325 1.38449 1.287 1.69649 1.287H3.30524C4.49474 1.287 5.29424 1.5405 5.70374 2.0475C6.11324 2.5545 6.31799 3.30525 6.31799 4.29975C6.31799 4.39725 6.29849 4.70925 6.25949 5.23575C6.23999 5.76225 6.20099 6.42525 6.14249 7.22475C6.08399 8.02425 6.01574 8.92125 5.93774 9.91575C5.87924 10.8907 5.81099 11.895 5.73299 12.9285C5.67449 13.962 5.60624 14.976 5.52824 15.9705C5.46974 16.9455 5.41124 17.8327 5.35274 18.6322C5.29424 19.4317 5.24549 20.1045 5.20649 20.6505C5.16749 21.177 5.13824 21.4987 5.11874 21.6157C5.09924 21.7717 5.06024 21.8887 5.00174 21.9667C4.94324 22.0252 4.82624 22.0545 4.65074 22.0545H3.04199ZM15.6035 18.3397C15.8375 17.5207 16.052 16.7115 16.247 15.912C16.4615 15.1125 16.6662 14.2642 16.8612 13.3672C17.0757 12.4507 17.3 11.4562 17.534 10.3837C17.7875 9.29175 18.08 8.0535 18.4115 6.669C18.47 6.396 18.5577 6.2205 18.6747 6.1425C18.7917 6.045 19.0452 5.99625 19.4352 5.99625C19.7277 5.99625 20.1177 6.006 20.6052 6.0255C21.0927 6.045 21.5705 6.11325 22.0385 6.23025C22.5065 6.34725 22.9062 6.52275 23.2377 6.75675C23.5887 6.99075 23.7642 7.3125 23.7642 7.722C23.7642 8.0535 23.6472 8.58975 23.4132 9.33075C23.1792 10.0717 22.877 10.92 22.5065 11.8755C22.136 12.8115 21.7167 13.7962 21.2487 14.8297C20.8002 15.8632 20.3615 16.8382 19.9325 17.7547C19.5035 18.6712 19.1037 19.4805 18.7332 20.1825C18.3627 20.865 18.0897 21.3427 17.9142 21.6157C17.7582 21.8302 17.6217 21.957 17.5047 21.996C17.3877 22.035 17.1927 22.0545 16.9197 22.0545H14.3165C13.907 22.0545 13.5657 21.9862 13.2927 21.8497C13.0392 21.6937 12.8247 21.4987 12.6492 21.2647C12.4737 21.0307 12.3275 20.7675 12.2105 20.475C12.0935 20.163 11.9862 19.8412 11.8887 19.5097C11.3232 17.5597 10.826 15.8925 10.397 14.508C9.98749 13.104 9.63649 11.934 9.34399 10.998C9.05149 10.062 8.81749 9.321 8.64199 8.775C8.46649 8.2095 8.32999 7.7805 8.23249 7.488C8.13499 7.176 8.06674 6.97125 8.02774 6.87375C7.98874 6.75675 7.96924 6.67875 7.96924 6.63975C7.98874 6.50325 8.08624 6.357 8.26174 6.201C8.43724 6.045 8.66149 5.967 8.93449 5.967C9.83149 5.967 10.592 6.006 11.216 6.084C11.8595 6.1425 12.386 6.2595 12.7955 6.435C13.2245 6.6105 13.5462 6.85425 13.7607 7.16625C13.9947 7.47825 14.1605 7.88775 14.258 8.39475C14.2775 8.53125 14.3165 8.80425 14.375 9.21375C14.4335 9.62325 14.492 10.1205 14.5505 10.7055C14.6285 11.271 14.7162 11.9047 14.8137 12.6067C14.9112 13.2892 14.999 13.9815 15.077 14.6835C15.1745 15.366 15.2622 16.029 15.3402 16.6725C15.4377 17.316 15.5255 17.8717 15.6035 18.3397ZM31.8009 22.347C30.9429 22.347 30.0849 22.2397 29.2269 22.0252C28.3884 21.8107 27.6279 21.4402 26.9454 20.9137C26.2824 20.3872 25.7364 19.6852 25.3074 18.8077C24.8784 17.9302 24.6639 16.8285 24.6639 15.5025C24.6639 15.015 24.7029 14.43 24.7809 13.7475C24.8589 13.065 25.0052 12.363 25.2197 11.6415C25.4537 10.92 25.7657 10.2082 26.1557 9.50625C26.5652 8.78475 27.0917 8.14125 27.7352 7.57575C28.3787 7.01025 29.1587 6.552 30.0752 6.201C30.9917 5.85 32.0837 5.6745 33.3512 5.6745C34.3652 5.6745 35.2232 5.7915 35.9252 6.0255C36.6272 6.2595 37.1927 6.58125 37.6217 6.99075C38.0507 7.38075 38.3627 7.839 38.5577 8.3655C38.7527 8.892 38.8502 9.4575 38.8502 10.062C38.8502 10.959 38.6649 11.7195 38.2944 12.3435C37.9434 12.9675 37.4754 13.494 36.8904 13.923C36.3249 14.3325 35.6912 14.6542 34.9892 14.8882C34.2872 15.1222 33.5949 15.3075 32.9124 15.444C32.2299 15.561 31.5962 15.639 31.0112 15.678C30.4457 15.6975 30.0069 15.7072 29.6949 15.7072C29.6949 16.0777 29.7437 16.4482 29.8412 16.8187C29.9582 17.1697 30.1239 17.4817 30.3384 17.7547C30.5529 18.0277 30.8357 18.252 31.1867 18.4275C31.5377 18.603 31.9667 18.6907 32.4737 18.6907C32.9807 18.6907 33.3707 18.6127 33.6437 18.4567C33.9362 18.2812 34.1702 18.096 34.3457 17.901C34.5212 17.6865 34.6674 17.5012 34.7844 17.3452C34.9209 17.1697 35.0964 17.082 35.3109 17.082C35.4084 17.082 35.5742 17.1112 35.8082 17.1697C36.0617 17.2087 36.3152 17.3062 36.5687 17.4622C36.8222 17.6182 37.0464 17.8327 37.2414 18.1057C37.4364 18.3787 37.5339 18.7297 37.5339 19.1587C37.5339 19.7242 37.3584 20.2117 37.0074 20.6212C36.6564 21.0307 36.1982 21.3622 35.6327 21.6157C35.0867 21.8692 34.4724 22.0545 33.7899 22.1715C33.1074 22.2885 32.4444 22.347 31.8009 22.347ZM32.3567 9.56475C31.9277 9.56475 31.5572 9.6915 31.2452 9.945C30.9527 10.179 30.6992 10.4812 30.4847 10.8517C30.2897 11.2222 30.1337 11.6317 30.0167 12.0802C29.9192 12.5287 29.8412 12.9577 29.7827 13.3672C30.9917 13.3477 31.9667 13.143 32.7077 12.753C33.4682 12.363 33.8484 11.8072 33.8484 11.0857C33.8484 10.6957 33.7217 10.3447 33.4682 10.0327C33.2342 9.72075 32.8637 9.56475 32.3567 9.56475ZM47.4225 15.9412C47.208 15.9412 47.1007 15.834 47.1007 15.6195L47.1885 14.04C47.208 13.7865 47.2372 13.5427 47.2762 13.3087C47.3347 13.0552 47.4322 12.831 47.5687 12.636C47.7247 12.441 47.9392 12.285 48.2122 12.168C48.4852 12.051 48.846 11.9925 49.2945 11.9925H57.2505C57.3675 11.9925 57.4747 12.0315 57.5722 12.1095C57.6697 12.168 57.7185 12.2655 57.7185 12.402L57.6015 13.9815C57.5625 14.5665 57.3967 15.0442 57.1042 15.4147C56.8312 15.7657 56.256 15.9412 55.3785 15.9412H47.4225ZM75.569 1.287C76.0565 1.287 76.4562 1.3845 76.7682 1.5795C77.0997 1.755 77.3727 1.99875 77.5872 2.31075C77.8017 2.60325 77.9772 2.9445 78.1137 3.3345C78.2502 3.7245 78.3672 4.12425 78.4647 4.53375C79.2447 7.69275 79.8882 10.296 80.3952 12.3435C80.9022 14.391 81.302 16.0485 81.5945 17.316C81.887 18.564 82.0917 19.4902 82.2087 20.0947C82.3257 20.6992 82.3842 21.1185 82.3842 21.3525C82.3842 21.6255 82.316 21.8107 82.1795 21.9082C82.0625 22.0057 81.8675 22.0545 81.5945 22.0545H80.1027C79.2642 22.0545 78.5915 21.957 78.0845 21.762C77.597 21.5475 77.2167 21.2452 76.9437 20.8552C76.6902 20.4652 76.505 19.9972 76.388 19.4512C76.271 18.8857 76.1735 18.252 76.0955 17.55H71.006L70.0407 21.5865C69.9432 21.8985 69.719 22.0545 69.368 22.0545H67.8177C67.5057 22.0545 67.184 22.0252 66.8525 21.9667C66.521 21.8887 66.2187 21.7717 65.9457 21.6157C65.6922 21.4597 65.4777 21.2647 65.3022 21.0307C65.1267 20.7772 65.039 20.475 65.039 20.124C65.039 19.695 65.1755 18.993 65.4485 18.018C65.7215 17.043 66.0627 15.9412 66.4722 14.7127C66.9012 13.4647 67.3692 12.168 67.8762 10.8225C68.4027 9.4575 68.9097 8.1705 69.3972 6.9615C69.8847 5.7525 70.3235 4.68975 70.7135 3.77325C71.123 2.85675 71.435 2.21325 71.6495 1.84275C71.8055 1.56975 71.942 1.41375 72.059 1.37475C72.1955 1.31625 72.4392 1.287 72.7902 1.287H75.569ZM72.059 13.3087H75.4227L74.1942 5.58675L72.059 13.3087ZM89.9417 11.934C89.9027 12.519 89.8539 13.1527 89.7954 13.8352C89.7369 14.5177 89.6784 15.21 89.6199 15.912C89.5614 16.5945 89.5029 17.2672 89.4444 17.9302C89.4054 18.5932 89.3664 19.1782 89.3274 19.6852C89.2884 20.1922 89.2494 20.6115 89.2104 20.943C89.1909 21.2745 89.1812 21.45 89.1812 21.4695C89.1617 21.7035 89.1129 21.8595 89.0349 21.9375C88.9569 22.0155 88.7912 22.0545 88.5377 22.0545H87.4847C86.4317 22.0545 85.6907 21.8107 85.2617 21.3232C84.8522 20.8162 84.6474 20.0655 84.6474 19.071C84.6474 18.954 84.6572 18.6615 84.6767 18.1935C84.7157 17.7255 84.7547 17.1697 84.7937 16.5262C84.8522 15.8632 84.9107 15.132 84.9692 14.3325C85.0277 13.533 85.0862 12.7335 85.1447 11.934H83.7699C83.5554 11.934 83.4482 11.8267 83.4482 11.6122C83.4482 11.4562 83.4579 11.232 83.4774 10.9395C83.4969 10.6275 83.5164 10.3252 83.5359 10.0327C83.5554 9.79875 83.5847 9.56475 83.6237 9.33075C83.6822 9.07725 83.7699 8.86275 83.8869 8.68725C84.0234 8.49225 84.2184 8.33625 84.4719 8.21925C84.7254 8.08275 85.0569 8.00475 85.4664 7.98525L85.5834 6.81525C85.7004 5.54775 85.9344 4.485 86.2854 3.627C86.6559 2.769 87.1337 2.0865 87.7187 1.5795C88.3037 1.053 88.9959 0.682495 89.7954 0.467996C90.6144 0.233995 91.5212 0.116995 92.5157 0.116995C93.4907 0.116995 94.3194 0.204745 95.0019 0.380245C95.7039 0.555745 96.2694 0.799496 96.6984 1.1115C97.1274 1.4235 97.4394 1.794 97.6344 2.223C97.8294 2.652 97.9269 3.11025 97.9269 3.59775C97.9269 4.61175 97.6052 5.33325 96.9617 5.76225C96.3377 6.19125 95.4894 6.40575 94.4169 6.40575C94.1244 6.40575 93.9197 6.38625 93.8027 6.34725C93.7052 6.28875 93.6564 6.17175 93.6564 5.99625C93.6564 5.35275 93.5979 4.84575 93.4809 4.47525C93.3639 4.10475 93.0422 3.9195 92.5157 3.9195C92.1257 3.9195 91.7942 4.0365 91.5212 4.2705C91.2482 4.5045 91.0239 4.8165 90.8484 5.2065C90.6729 5.577 90.5364 6.006 90.4389 6.4935C90.3609 6.981 90.2927 7.47825 90.2342 7.98525H93.5979C93.9099 7.98525 94.0659 8.12175 94.0659 8.39475L93.9489 9.97425C93.9099 10.5592 93.7442 11.037 93.4517 11.4075C93.1787 11.7585 92.6034 11.934 91.7259 11.934H89.9417ZM103.372 9.91575C103.314 10.6567 103.246 11.388 103.168 12.1095C103.109 12.831 103.051 13.5135 102.992 14.157C102.934 14.8005 102.885 15.3757 102.846 15.8827C102.826 16.3897 102.817 16.7797 102.817 17.0527C102.817 17.5597 102.875 17.901 102.992 18.0765C103.109 18.2325 103.304 18.3105 103.577 18.3105C103.792 18.3105 103.977 18.2715 104.133 18.1935C104.289 18.1155 104.435 18.0277 104.572 17.9302C104.708 17.8327 104.825 17.745 104.923 17.667C105.04 17.589 105.166 17.55 105.303 17.55C105.439 17.55 105.566 17.628 105.683 17.784C105.8 17.94 105.859 18.3007 105.859 18.8662C105.859 19.9387 105.566 20.787 104.981 21.411C104.396 22.035 103.392 22.347 101.968 22.347C100.564 22.347 99.5212 22.0252 98.8387 21.3817C98.1757 20.7187 97.8442 19.7145 97.8442 18.369C97.8442 18.0765 97.854 17.7352 97.8735 17.3452C97.9125 16.9357 97.9612 16.4092 98.0197 15.7657C98.0782 15.1222 98.1465 14.3325 98.2245 13.3965C98.322 12.4605 98.4195 11.3002 98.517 9.91575H96.9667C96.8107 9.91575 96.7132 9.8865 96.6742 9.828C96.6547 9.75 96.645 9.64275 96.645 9.50625L96.7327 8.0145C96.7522 7.761 96.7815 7.51725 96.8205 7.28325C96.879 7.02975 96.9765 6.8055 97.113 6.6105C97.269 6.4155 97.4835 6.2595 97.7565 6.1425C98.0295 6.0255 98.3902 5.967 98.8387 5.967C98.9752 5.616 99.1312 5.19675 99.3067 4.70925C99.4822 4.22175 99.6577 3.75375 99.8332 3.30525C100.009 2.83725 100.174 2.44725 100.33 2.13525C100.506 1.82325 100.662 1.66725 100.798 1.66725H101.647C102.466 1.66725 103.031 1.92075 103.343 2.42775C103.655 2.93475 103.811 3.53925 103.811 4.24125C103.811 4.63125 103.782 5.2065 103.723 5.967H106.795C107.107 5.967 107.263 6.1035 107.263 6.3765L107.146 7.956C107.107 8.541 106.941 9.01875 106.648 9.38925C106.375 9.74025 105.8 9.91575 104.923 9.91575H103.372ZM115.323 22.347C114.465 22.347 113.607 22.2397 112.749 22.0252C111.911 21.8107 111.15 21.4402 110.468 20.9137C109.805 20.3872 109.259 19.6852 108.83 18.8077C108.401 17.9302 108.186 16.8285 108.186 15.5025C108.186 15.015 108.225 14.43 108.303 13.7475C108.381 13.065 108.528 12.363 108.742 11.6415C108.976 10.92 109.288 10.2082 109.678 9.50625C110.088 8.78475 110.614 8.14125 111.258 7.57575C111.901 7.01025 112.681 6.552 113.598 6.201C114.514 5.85 115.606 5.6745 116.874 5.6745C117.888 5.6745 118.746 5.7915 119.448 6.0255C120.15 6.2595 120.715 6.58125 121.144 6.99075C121.573 7.38075 121.885 7.839 122.08 8.3655C122.275 8.892 122.373 9.4575 122.373 10.062C122.373 10.959 122.187 11.7195 121.817 12.3435C121.466 12.9675 120.998 13.494 120.413 13.923C119.847 14.3325 119.214 14.6542 118.512 14.8882C117.81 15.1222 117.117 15.3075 116.435 15.444C115.752 15.561 115.119 15.639 114.534 15.678C113.968 15.6975 113.529 15.7072 113.217 15.7072C113.217 16.0777 113.266 16.4482 113.364 16.8187C113.481 17.1697 113.646 17.4817 113.861 17.7547C114.075 18.0277 114.358 18.252 114.709 18.4275C115.06 18.603 115.489 18.6907 115.996 18.6907C116.503 18.6907 116.893 18.6127 117.166 18.4567C117.459 18.2812 117.693 18.096 117.868 17.901C118.044 17.6865 118.19 17.5012 118.307 17.3452C118.443 17.1697 118.619 17.082 118.833 17.082C118.931 17.082 119.097 17.1112 119.331 17.1697C119.584 17.2087 119.838 17.3062 120.091 17.4622C120.345 17.6182 120.569 17.8327 120.764 18.1057C120.959 18.3787 121.056 18.7297 121.056 19.1587C121.056 19.7242 120.881 20.2117 120.53 20.6212C120.179 21.0307 119.721 21.3622 119.155 21.6157C118.609 21.8692 117.995 22.0545 117.312 22.1715C116.63 22.2885 115.967 22.347 115.323 22.347ZM115.879 9.56475C115.45 9.56475 115.08 9.6915 114.768 9.945C114.475 10.179 114.222 10.4812 114.007 10.8517C113.812 11.2222 113.656 11.6317 113.539 12.0802C113.442 12.5287 113.364 12.9577 113.305 13.3672C114.514 13.3477 115.489 13.143 116.23 12.753C116.991 12.363 117.371 11.8072 117.371 11.0857C117.371 10.6957 117.244 10.3447 116.991 10.0327C116.757 9.72075 116.386 9.56475 115.879 9.56475ZM133.582 12.9577C133.465 12.9577 133.328 12.9577 133.172 12.9577C133.036 12.9382 132.899 12.9187 132.763 12.8992C132.626 12.8602 132.509 12.8212 132.412 12.7822C132.314 12.7237 132.266 12.6555 132.266 12.5775C132.266 12.324 132.275 12.09 132.295 11.8755C132.314 11.661 132.324 11.4367 132.324 11.2027C132.324 10.7737 132.266 10.4227 132.149 10.1497C132.032 9.87675 131.798 9.74025 131.447 9.74025C130.901 9.74025 130.442 10.101 130.072 10.8225C129.721 11.5245 129.497 12.5872 129.399 14.0107C129.36 14.6347 129.302 15.3465 129.224 16.146C129.165 16.926 129.107 17.6865 129.048 18.4275C128.99 19.149 128.941 19.7925 128.902 20.358C128.863 20.9235 128.843 21.294 128.843 21.4695C128.843 21.6645 128.775 21.8107 128.639 21.9082C128.502 22.0057 128.356 22.0545 128.2 22.0545H127.147C126.542 22.0545 126.045 21.996 125.655 21.879C125.285 21.7425 124.982 21.5572 124.748 21.3232C124.534 21.0892 124.378 20.8065 124.28 20.475C124.202 20.124 124.163 19.7242 124.163 19.2757C124.163 18.9832 124.173 18.5737 124.193 18.0472C124.232 17.5012 124.29 16.7602 124.368 15.8242C124.446 14.8687 124.534 13.6695 124.631 12.2265C124.748 10.764 124.885 8.96025 125.041 6.81525C125.08 6.24975 125.285 5.967 125.655 5.967H126.796C127.342 5.967 127.8 6.0255 128.171 6.1425C128.541 6.2595 128.843 6.42525 129.077 6.63975C129.311 6.83475 129.477 7.06875 129.575 7.34175C129.692 7.61475 129.77 7.8975 129.809 8.19C130.043 7.7415 130.316 7.36125 130.628 7.04925C130.959 6.71775 131.3 6.4545 131.651 6.2595C132.002 6.045 132.363 5.89875 132.734 5.82075C133.104 5.72325 133.445 5.6745 133.757 5.6745C134.128 5.6745 134.498 5.74275 134.869 5.87925C135.259 6.01575 135.61 6.2205 135.922 6.4935C136.234 6.7665 136.478 7.1175 136.653 7.5465C136.848 7.9755 136.946 8.4825 136.946 9.0675C136.946 9.594 136.868 10.0912 136.712 10.5592C136.556 11.0272 136.331 11.4465 136.039 11.817C135.746 12.168 135.386 12.4507 134.957 12.6652C134.547 12.8602 134.089 12.9577 133.582 12.9577ZM147.178 22.0545C146.086 22.0545 145.306 21.84 144.838 21.411C144.37 20.982 144.136 20.3677 144.136 19.5682C144.136 19.1782 144.165 18.5152 144.224 17.5792C144.282 16.6237 144.36 15.5415 144.458 14.3325C144.555 13.1235 144.653 11.8462 144.75 10.5007C144.848 9.15525 144.945 7.88775 145.043 6.69825C145.14 5.50875 145.218 4.4655 145.277 3.5685C145.335 2.6715 145.365 2.05725 145.365 1.72575C145.365 1.43325 145.521 1.287 145.833 1.287H147.441C148.533 1.287 149.284 1.5015 149.694 1.9305C150.123 2.34 150.337 2.95425 150.337 3.77325C150.337 3.87075 150.327 3.9585 150.308 4.0365C150.308 4.1145 150.308 4.20225 150.308 4.29975L149.343 17.9595H154.608C154.725 17.9595 154.832 17.9985 154.929 18.0765C155.027 18.135 155.076 18.2325 155.076 18.369L154.959 20.0947C154.92 20.6797 154.754 21.1575 154.461 21.528C154.188 21.879 153.613 22.0545 152.736 22.0545H147.178ZM159.968 22.0545C159.363 22.0545 158.866 21.996 158.476 21.879C158.105 21.7425 157.803 21.5572 157.569 21.3232C157.355 21.0892 157.199 20.8065 157.101 20.475C157.023 20.124 156.984 19.7242 156.984 19.2757C156.984 18.9832 156.994 18.5737 157.013 18.0472C157.052 17.5012 157.111 16.7602 157.189 15.8242C157.267 14.8687 157.355 13.6695 157.452 12.2265C157.569 10.764 157.706 8.96025 157.862 6.81525C157.881 6.38625 157.93 6.13275 158.008 6.05475C158.066 5.99625 158.222 5.967 158.476 5.967H159.617C160.221 5.967 160.709 6.0255 161.079 6.1425C161.469 6.2595 161.771 6.435 161.986 6.669C162.22 6.903 162.376 7.18575 162.454 7.51725C162.551 7.84875 162.6 8.21925 162.6 8.62875C162.6 8.92125 162.581 9.36 162.542 9.945C162.503 10.53 162.444 11.3295 162.366 12.3435C162.308 13.338 162.22 14.586 162.103 16.0875C161.986 17.5695 161.84 19.3635 161.664 21.4695C161.645 21.7035 161.596 21.8595 161.518 21.9375C161.44 22.0155 161.274 22.0545 161.021 22.0545H159.968ZM157.891 2.5155C157.891 1.7355 158.174 1.12125 158.739 0.672747C159.305 0.224247 160.065 -3.47197e-06 161.021 -3.47197e-06C161.859 -3.47197e-06 162.464 0.175496 162.834 0.526495C163.224 0.857995 163.419 1.3065 163.419 1.872C163.419 2.5935 163.146 3.198 162.6 3.6855C162.074 4.1535 161.294 4.3875 160.26 4.3875C158.681 4.3875 157.891 3.7635 157.891 2.5155ZM179.075 19.6852C179.075 19.7827 179.026 19.9777 178.929 20.2702C178.831 20.5627 178.675 20.865 178.461 21.177C178.246 21.489 177.973 21.762 177.642 21.996C177.33 22.23 176.95 22.347 176.501 22.347C175.975 22.347 175.448 22.1715 174.922 21.8205C174.415 21.4695 173.908 20.9917 173.401 20.3872C172.894 19.7827 172.377 19.071 171.85 18.252C171.343 17.4135 170.827 16.5067 170.3 15.5317C170.222 16.5652 170.144 17.5792 170.066 18.5737C169.988 19.5682 169.91 20.5335 169.832 21.4695C169.813 21.7035 169.764 21.8595 169.686 21.9375C169.608 22.0155 169.442 22.0545 169.189 22.0545H168.136C167.531 22.0545 167.034 21.996 166.644 21.879C166.254 21.7425 165.952 21.5572 165.737 21.3232C165.523 21.0892 165.367 20.7967 165.269 20.4457C165.191 20.0752 165.152 19.656 165.152 19.188C165.152 18.954 165.162 18.7102 165.181 18.4567C165.201 18.2032 165.23 17.8425 165.269 17.3745C165.308 16.9065 165.357 16.2922 165.415 15.5317C165.493 14.7712 165.581 13.767 165.679 12.519C165.776 11.271 165.883 9.74025 166 7.92675C166.137 6.09375 166.283 3.87075 166.439 1.25775C166.459 0.828746 166.507 0.575246 166.585 0.497245C166.644 0.438746 166.8 0.409496 167.053 0.409496H168.194C168.799 0.409496 169.296 0.477746 169.686 0.614246C170.076 0.750746 170.388 0.935996 170.622 1.17C170.856 1.404 171.012 1.677 171.09 1.989C171.187 2.301 171.236 2.62275 171.236 2.95425C171.236 3.14925 171.217 3.48075 171.178 3.94875C171.158 4.39725 171.129 4.953 171.09 5.616C171.051 6.2595 170.992 6.99075 170.914 7.80975C170.856 8.62875 170.797 9.48675 170.739 10.3837L175.419 6.11325C175.594 5.95725 175.75 5.85 175.887 5.7915C176.043 5.733 176.16 5.70375 176.238 5.70375C176.452 5.70375 176.686 5.84025 176.94 6.11325C177.193 6.38625 177.427 6.708 177.642 7.0785C177.876 7.4295 178.061 7.8 178.198 8.19C178.354 8.5605 178.432 8.86275 178.432 9.09675C178.432 9.66225 177.973 10.257 177.057 10.881C176.16 11.505 174.795 12.207 172.962 12.987C173.781 13.9035 174.561 14.742 175.302 15.5025C176.043 16.263 176.686 16.9357 177.232 17.5207C177.798 18.1057 178.246 18.5835 178.578 18.954C178.909 19.3245 179.075 19.5682 179.075 19.6852ZM187.334 22.347C186.476 22.347 185.618 22.2397 184.76 22.0252C183.922 21.8107 183.161 21.4402 182.479 20.9137C181.816 20.3872 181.27 19.6852 180.841 18.8077C180.412 17.9302 180.197 16.8285 180.197 15.5025C180.197 15.015 180.236 14.43 180.314 13.7475C180.392 13.065 180.539 12.363 180.753 11.6415C180.987 10.92 181.299 10.2082 181.689 9.50625C182.099 8.78475 182.625 8.14125 183.269 7.57575C183.912 7.01025 184.692 6.552 185.609 6.201C186.525 5.85 187.617 5.6745 188.885 5.6745C189.899 5.6745 190.757 5.7915 191.459 6.0255C192.161 6.2595 192.726 6.58125 193.155 6.99075C193.584 7.38075 193.896 7.839 194.091 8.3655C194.286 8.892 194.384 9.4575 194.384 10.062C194.384 10.959 194.198 11.7195 193.828 12.3435C193.477 12.9675 193.009 13.494 192.424 13.923C191.858 14.3325 191.225 14.6542 190.523 14.8882C189.821 15.1222 189.128 15.3075 188.446 15.444C187.763 15.561 187.13 15.639 186.545 15.678C185.979 15.6975 185.54 15.7072 185.228 15.7072C185.228 16.0777 185.277 16.4482 185.375 16.8187C185.492 17.1697 185.657 17.4817 185.872 17.7547C186.086 18.0277 186.369 18.252 186.72 18.4275C187.071 18.603 187.5 18.6907 188.007 18.6907C188.514 18.6907 188.904 18.6127 189.177 18.4567C189.47 18.2812 189.704 18.096 189.879 17.901C190.055 17.6865 190.201 17.5012 190.318 17.3452C190.454 17.1697 190.63 17.082 190.844 17.082C190.942 17.082 191.108 17.1112 191.342 17.1697C191.595 17.2087 191.849 17.3062 192.102 17.4622C192.356 17.6182 192.58 17.8327 192.775 18.1057C192.97 18.3787 193.067 18.7297 193.067 19.1587C193.067 19.7242 192.892 20.2117 192.541 20.6212C192.19 21.0307 191.732 21.3622 191.166 21.6157C190.62 21.8692 190.006 22.0545 189.323 22.1715C188.641 22.2885 187.978 22.347 187.334 22.347ZM187.89 9.56475C187.461 9.56475 187.091 9.6915 186.779 9.945C186.486 10.179 186.233 10.4812 186.018 10.8517C185.823 11.2222 185.667 11.6317 185.55 12.0802C185.453 12.5287 185.375 12.9577 185.316 13.3672C186.525 13.3477 187.5 13.143 188.241 12.753C189.002 12.363 189.382 11.8072 189.382 11.0857C189.382 10.6957 189.255 10.3447 189.002 10.0327C188.768 9.72075 188.397 9.56475 187.89 9.56475Z" fill="#FFE0E8"/>
</svg>
